<svg width="43" height="43" viewBox="0 0 43 43" fill="none" xmlns="http://www.w3.org/2000/svg">
<path d="M10.2708 19.5472C15.3449 19.5472 19.4583 15.4339 19.4583 10.3597C19.4583 5.28562 15.3449 1.17224 10.2708 1.17224C5.19664 1.17224 1.08325 5.28562 1.08325 10.3597C1.08325 15.4339 5.19664 19.5472 10.2708 19.5472Z" stroke="#6C6C6C" stroke-width="1.5" stroke-linecap="round" stroke-linejoin="round"/>
<path d="M19.4583 9.33887H34.3135C38.9236 9.33887 41.2286 9.33887 41.8044 10.7231C42.376 12.1094 40.7468 13.7387 37.4863 16.9992L16.9103 37.5751C13.6498 40.8357 12.0205 42.467 10.6342 41.8932C9.25 41.3175 9.25 39.0145 9.25 34.4024V19.5472" stroke="#6C6C6C" stroke-width="1.5" stroke-linecap="round" stroke-linejoin="round"/>
<path d="M32.729 21.5889H33.7498C37.6004 21.5889 39.5237 21.5889 40.7201 22.7853C41.9165 23.9817 41.9165 25.905 41.9165 29.7555V31.7972C41.9165 35.6478 41.9165 37.571 40.7201 38.7675C39.5237 39.9639 37.6004 39.9639 33.7498 39.9639H31.7082C27.8576 39.9639 25.9343 39.9639 24.7379 38.7675C23.5415 37.571 23.5415 35.6478 23.5415 31.7972V30.7764" stroke="#6C6C6C" stroke-width="1.5" stroke-linecap="round" stroke-linejoin="round"/>
</svg>
