<svg width="48" height="48" viewBox="0 0 48 48" fill="none" xmlns="http://www.w3.org/2000/svg">
<path d="M23.9999 40.32C33.0132 40.32 40.3199 33.0133 40.3199 24C40.3199 14.9867 33.0132 7.67999 23.9999 7.67999C14.9866 7.67999 7.67993 14.9867 7.67993 24C7.67993 33.0133 14.9866 40.32 23.9999 40.32Z" stroke="#6C6C6C" stroke-width="1.5" stroke-linecap="round" stroke-linejoin="round"/>
<path d="M34.61 42.38L36.85 34L37.01 33.78L44.5 29.45L40.19 22V21.72L42.43 13.37L34 11.15L33.82 11L29.49 3.5L22 7.81L21.72 7.86L13.39 5.62L11.15 14L10.99 14.22L3.5 18.51L7.81 26C7.81 26.09 7.81 26.19 7.86 26.28L5.62 34.61L14 36.85L14.22 37.01L18.55 44.5L26 40.19H26.28L34.61 42.38Z" stroke="#6C6C6C" stroke-width="1.5" stroke-linecap="round" stroke-linejoin="round"/>
</svg>
