<svg width="57" height="57" viewBox="0 0 57 57" fill="none" xmlns="http://www.w3.org/2000/svg">
<path d="M32.0625 15.5287L40.375 23.8412M16.625 30.9662L24.9375 39.2787M24.9375 15.5287L16.625 23.8412M40.375 30.9662L32.0625 39.2787" stroke="#6C6C6C" stroke-width="1.5" stroke-linecap="round"/>
<path d="M28.5 16.7162C31.1234 16.7162 33.25 14.5896 33.25 11.9662C33.25 9.34289 31.1234 7.21625 28.5 7.21625C25.8766 7.21625 23.75 9.34289 23.75 11.9662C23.75 14.5896 25.8766 16.7162 28.5 16.7162Z" stroke="#6C6C6C" stroke-width="1.5"/>
<path d="M28.5 47.5912C31.1234 47.5912 33.25 45.4646 33.25 42.8412C33.25 40.2179 31.1234 38.0912 28.5 38.0912C25.8766 38.0912 23.75 40.2179 23.75 42.8412C23.75 45.4646 25.8766 47.5912 28.5 47.5912Z" stroke="#6C6C6C" stroke-width="1.5"/>
<path d="M13.0625 32.1537C15.6859 32.1537 17.8125 30.0271 17.8125 27.4037C17.8125 24.7804 15.6859 22.6537 13.0625 22.6537C10.4391 22.6537 8.3125 24.7804 8.3125 27.4037C8.3125 30.0271 10.4391 32.1537 13.0625 32.1537Z" stroke="#6C6C6C" stroke-width="1.5"/>
<path d="M43.9375 32.1537C46.5609 32.1537 48.6875 30.0271 48.6875 27.4037C48.6875 24.7804 46.5609 22.6537 43.9375 22.6537C41.3141 22.6537 39.1875 24.7804 39.1875 27.4037C39.1875 30.0271 41.3141 32.1537 43.9375 32.1537Z" stroke="#6C6C6C" stroke-width="1.5"/>
</svg>
