<svg width="534" height="409" viewBox="0 0 534 409" fill="none" xmlns="http://www.w3.org/2000/svg">
<rect width="170" height="409" transform="matrix(-1 0 0 1 377 0)" fill="#A91C11"/>
<rect width="6" height="29" transform="matrix(-1 0 0 1 295 28)" fill="#D9D9D9"/>
<circle cx="6" cy="6" r="6" transform="matrix(-1 0 0 1 320 28)" fill="#D9D9D9"/>
<circle cx="2.5" cy="2.5" r="2.5" transform="matrix(-1 0 0 1 315 31)" fill="#1B1D21"/>
<circle cx="6" cy="6" r="6" transform="matrix(-1 0 0 1 277 28)" fill="#D9D9D9"/>
<circle cx="2.5" cy="2.5" r="2.5" transform="matrix(-1 0 0 1 272 31)" fill="#1B1D21"/>
<rect width="132" height="297" transform="matrix(-1 0 0 1 244 112)" fill="#1B1D21"/>
<circle cx="6.5" cy="6.5" r="6.5" transform="matrix(-1 0 0 1 165 139)" fill="#D9D9D9"/>
<circle cx="2.70833" cy="2.70833" r="2.70833" transform="matrix(-1 0 0 1 159.583 142.25)" fill="#1B1D21"/>
<circle cx="6.5" cy="6.5" r="6.5" transform="matrix(-1 0 0 1 136.833 139)" fill="#D9D9D9"/>
<circle cx="2.70833" cy="2.70833" r="2.70833" transform="matrix(-1 0 0 1 131.417 142.25)" fill="#1B1D21"/>
<path d="M534 381C534 298.157 466.843 231 384 231H375C292.157 231 225 298.157 225 381V409H534V381Z" fill="#587DBD"/>
<circle cx="7" cy="7" r="7" transform="matrix(-1 0 0 1 392 330)" fill="#1E1E1E"/>
<circle cx="7" cy="7" r="7" transform="matrix(-1 0 0 1 337 330)" fill="#1E1E1E"/>
<path d="M367 344H343V345C343 351.627 348.373 357 355 357C361.627 357 367 351.627 367 345V344Z" fill="#1E1E1E"/>
<path d="M156 253C156 219.863 129.137 193 96 193C62.8629 193 36 219.863 36 253V409H156V253Z" fill="#FF8533"/>
<circle cx="5" cy="5" r="5" transform="matrix(-1 0 0 1 102 228)" fill="#1B1D21"/>
<rect width="83" height="5" transform="matrix(-1 0 0 1 83 256)" fill="#1E1E1E"/>
</svg>
