<svg width="31" height="31" viewBox="0 0 31 31" fill="none" xmlns="http://www.w3.org/2000/svg">
<path d="M20.9166 10.7714L23.0432 12.8981C24.6463 14.5011 25.2102 11.5447 27.448 11.1742C28.1988 11.0485 28.8609 10.7939 29.1445 9.96261C29.3958 9.22794 29.1107 8.53678 28.2197 7.64583L25.9722 5.39994M13.8889 17.1111L30 1M8.25 30C9.20208 30 10.1448 29.8125 11.0245 29.4481C11.9041 29.0838 12.7033 28.5497 13.3765 27.8765C14.0497 27.2033 14.5838 26.4041 14.9481 25.5245C15.3125 24.6448 15.5 23.7021 15.5 22.75C15.5 21.7979 15.3125 20.8552 14.9481 19.9755C14.5838 19.0959 14.0497 18.2967 13.3765 17.6235C12.7033 16.9503 11.9041 16.4162 11.0245 16.0519C10.1448 15.6875 9.20208 15.5 8.25 15.5C6.32718 15.5 4.48311 16.2638 3.12348 17.6235C1.76384 18.9831 1 20.8272 1 22.75C1 24.6728 1.76384 26.5169 3.12348 27.8765C4.48311 29.2362 6.32718 30 8.25 30Z" stroke="url(#paint0_linear_1083_2686)" stroke-width="2" stroke-linecap="round" stroke-linejoin="round"/>
<defs>
<linearGradient id="paint0_linear_1083_2686" x1="1" y1="19.8966" x2="30" y2="11.1034" gradientUnits="userSpaceOnUse">
<stop stop-color="#754C50"/>
<stop offset="1" stop-color="#DB8E96"/>
</linearGradient>
</defs>
</svg>
